<svg width="32" height="32" viewBox="0 0 32 32" fill="none" xmlns="http://www.w3.org/2000/svg">
<rect width="32" height="32" rx="16" fill="#C30205"/>
<path fill-rule="evenodd" clip-rule="evenodd" d="M18.1928 24.2521C18.2004 24.251 18.208 24.25 18.2156 24.2488C23.1887 23.5031 26.6157 18.867 25.8699 13.8939C25.1242 8.92086 20.4881 5.49377 15.515 6.23951C15.5074 6.24065 15.4999 6.24204 15.4923 6.2432L15.1559 4L11.0695 4.61278L14.1064 24.865L18.1928 24.2521ZM17.4833 19.5207L16.2018 10.9746C16.2094 10.9734 16.2169 10.9719 16.2245 10.9708C18.5846 10.6169 20.7848 12.2433 21.1388 14.6034C21.4927 16.9635 19.8663 19.1636 17.5062 19.5175C17.4985 19.5187 17.4909 19.5196 17.4833 19.5207Z" fill="#F5F6F8"/>
<path d="M10.6523 8.58745C8.53752 10.5648 7.39896 13.5149 7.86075 16.5945C7.87659 16.7002 7.89427 16.8052 7.9136 16.9095L7.9081 16.9103L9.57107 28L13.4755 27.4145L10.6523 8.58745Z" fill="#F5F6F8"/>
</svg>
