<svg width="18" height="22" viewBox="0 0 18 22" fill="none" xmlns="http://www.w3.org/2000/svg">
<path d="M16.8074 8.78588C16.8074 13.7924 11.2534 19.0066 9.38833 20.6169C9.21458 20.7476 9.00309 20.8182 8.7857 20.8182C8.56831 20.8182 8.35681 20.7476 8.18307 20.6169C6.31802 19.0066 0.763977 13.7924 0.763977 8.78588C0.763977 6.65839 1.60912 4.61803 3.11349 3.11367C4.61785 1.6093 6.65821 0.76416 8.7857 0.76416C10.9132 0.76416 12.9535 1.6093 14.4579 3.11367C15.9623 4.61803 16.8074 6.65839 16.8074 8.78588Z" stroke="#F5F6F8" stroke-width="1.52795" stroke-linecap="round" stroke-linejoin="round"/>
<path d="M8.7857 11.794C10.4471 11.794 11.7938 10.4472 11.7938 8.78588C11.7938 7.12453 10.4471 5.77774 8.7857 5.77774C7.12435 5.77774 5.77755 7.12453 5.77755 8.78588C5.77755 10.4472 7.12435 11.794 8.7857 11.794Z" stroke="#F5F6F8" stroke-width="1.52795" stroke-linecap="round" stroke-linejoin="round"/>
</svg>
