<svg width="20" height="20" viewBox="0 0 20 20" fill="none" xmlns="http://www.w3.org/2000/svg">
<path d="M14.343 11.7908C14.0965 11.666 12.8957 11.08 12.6713 10.9964C12.4468 10.9165 12.2839 10.8747 12.1204 11.1212C11.9605 11.3616 11.4895 11.9119 11.3457 12.0724C11.2018 12.2329 11.0604 12.2452 10.8175 12.1363C10.571 12.0115 9.78335 11.7551 8.84817 10.9165C8.11774 10.2666 7.6314 9.46609 7.48692 9.21954C7.34304 8.97606 7.47093 8.83834 7.59267 8.7166C7.70457 8.6047 7.83922 8.435 7.96403 8.28744C8.0827 8.13988 8.12082 8.04089 8.20751 7.88103C8.28744 7.70826 8.24624 7.57361 8.18538 7.45187C8.12451 7.33013 7.63448 6.1232 7.42974 5.64239C7.23422 5.16528 7.02947 5.22615 6.87884 5.22615C6.73804 5.21324 6.57449 5.21324 6.41156 5.21324C6.24863 5.21324 5.9824 5.2741 5.75798 5.50774C5.53357 5.7543 4.89967 6.34331 4.89967 7.53487C4.89967 8.72951 5.77704 9.88541 5.89878 10.0582C6.0236 10.218 7.62464 12.6774 10.0809 13.7343C10.6669 13.9809 11.1219 14.1284 11.4772 14.2502C12.0632 14.4358 12.5981 14.41 13.0205 14.3492C13.4878 14.2723 14.4678 13.7564 14.6732 13.1803C14.8816 12.6005 14.8816 12.1204 14.8207 12.0115C14.7599 11.8996 14.6 11.8388 14.3535 11.7299L14.343 11.7908ZM9.88848 17.8304H9.87557C8.42147 17.8304 6.98398 17.4363 5.72847 16.6997L5.43396 16.5238L2.35976 17.3244L3.18611 14.3332L2.98751 14.0257C2.17571 12.7347 1.74499 11.2407 1.74492 9.71571C1.74492 5.25197 5.39892 1.61088 9.89463 1.61088C12.0724 1.61088 14.1155 2.45936 15.6526 3.99647C16.4108 4.74575 17.0123 5.6385 17.4218 6.62265C17.8314 7.6068 18.0409 8.66265 18.0382 9.72863C18.0321 14.1893 14.3811 17.8304 9.89156 17.8304H9.88848ZM16.8214 2.82765C14.9511 1.02125 12.4917 0 9.87557 0C4.47973 0 0.0860777 4.37459 0.0830035 9.75076C0.0830035 11.4674 0.531222 13.1422 1.38954 14.6246L0 19.6749L5.19418 18.3204C6.63281 19.0969 8.24137 19.505 9.87619 19.5083H9.87926C15.2782 19.5083 19.6718 15.1337 19.6749 9.75383C19.6749 7.1506 18.6598 4.70046 16.8091 2.85901L16.8214 2.82765Z" fill="#F5F6F8"/>
</svg>
