<svg width="19" height="17" viewBox="0 0 19 17" fill="none" xmlns="http://www.w3.org/2000/svg">
<path d="M1.17491 3.82124C0.812614 3.61357 0.350563 3.73891 0.142891 4.10121C-0.0647815 4.46351 0.0605651 4.92556 0.422861 5.13323L0.798885 4.47723L1.17491 3.82124ZM7.35365 8.23451L7.73315 7.58051L7.72967 7.57852L7.35365 8.23451ZM9.16178 8.72112V9.47724V8.72112ZM10.9699 8.23451L10.5947 7.57805L10.5904 7.58052L10.9699 8.23451ZM17.9181 5.13368C18.2807 4.92644 18.4066 4.46454 18.1993 4.10199C17.9921 3.73945 17.5302 3.61355 17.1676 3.82079L17.5429 4.47723L17.9181 5.13368ZM4.39514 0.756348V1.51247H13.9475V0.756348V0.000224411H4.39514V0.756348ZM13.9475 0.756348V1.51247C15.5397 1.51247 16.8304 2.80318 16.8304 4.39536H17.5865H18.3427C18.3427 1.96799 16.3749 0.000224411 13.9475 0.000224411V0.756348ZM17.5865 4.39536H16.8304V12.5831H17.5865H18.3427V4.39536H17.5865ZM17.5865 12.5831H16.8304C16.8304 14.1753 15.5397 15.466 13.9475 15.466V16.2221V16.9783C16.3749 16.9783 18.3427 15.0105 18.3427 12.5831H17.5865ZM13.9475 16.2221V15.466H4.39514V16.2221V16.9783H13.9475V16.2221ZM4.39514 16.2221V15.466C2.80296 15.466 1.51225 14.1753 1.51225 12.5831H0.756126H3.15905e-06C3.15905e-06 15.0105 1.96777 16.9783 4.39514 16.9783V16.2221ZM0.756126 12.5831H1.51225V4.39536H0.756126H3.15905e-06V12.5831H0.756126ZM0.756126 4.39536H1.51225C1.51225 2.80318 2.80296 1.51247 4.39514 1.51247V0.756348V0.000224411C1.96777 0.000224411 3.15905e-06 1.96799 3.15905e-06 4.39536H0.756126ZM0.798885 4.47723L0.422861 5.13323L6.97762 8.8905L7.35365 8.23451L7.72967 7.57852L1.17491 3.82124L0.798885 4.47723ZM7.35365 8.23451L6.97416 8.8885C7.63873 9.27414 8.39343 9.47724 9.16178 9.47724V8.72112V7.965C8.66001 7.965 8.16714 7.83236 7.73314 7.58052L7.35365 8.23451ZM9.16178 8.72112V9.47724C9.93014 9.47724 10.6848 9.27414 11.3494 8.8885L10.9699 8.23451L10.5904 7.58052C10.1564 7.83236 9.66356 7.965 9.16178 7.965V8.72112ZM10.9699 8.23451L11.3452 8.89095L17.9181 5.13368L17.5429 4.47723L17.1676 3.82079L10.5947 7.57807L10.9699 8.23451Z" fill="#F5F6F8"/>
</svg>
