<svg width="110" height="111" viewBox="0 0 110 111" fill="none" xmlns="http://www.w3.org/2000/svg">
<path fill-rule="evenodd" clip-rule="evenodd" d="M62.6037 121.513C62.6494 121.506 62.6951 121.5 62.7407 121.493C92.5793 117.019 113.141 89.2022 108.667 59.3637C104.192 29.5251 76.3756 8.9626 46.5371 13.4371C46.4914 13.4439 46.446 13.4522 46.4004 13.4592L44.3821 0L19.8638 3.67668L38.0856 125.19L62.6037 121.513ZM58.3467 93.1242L50.6575 41.8477C50.703 41.8406 50.7483 41.8316 50.794 41.8248C64.9547 39.7013 78.156 49.4598 80.2796 63.6205C82.4029 77.7812 72.6446 90.9818 58.4838 93.1053C58.4382 93.1121 58.3923 93.1176 58.3467 93.1242Z" fill="#F5F6F8"/>
<path d="M17.3605 27.5247C4.67201 39.3886 -2.15936 57.0895 0.611389 75.5672C0.706465 76.2012 0.812537 76.8312 0.928483 77.4567L0.895473 77.4617L10.8733 144L34.2999 140.487L17.3605 27.5247Z" fill="#F5F6F8"/>
</svg>
