<svg width="134" height="44" viewBox="0 0 134 44" fill="none" xmlns="http://www.w3.org/2000/svg">
<path fill-rule="evenodd" clip-rule="evenodd" d="M67.4302 37.0753C67.4441 37.0733 67.4581 37.0714 67.472 37.0693C76.5762 35.7041 82.8498 27.2169 81.4846 18.1127C80.1193 9.00856 71.6322 2.73462 62.528 4.09984C62.5141 4.10193 62.5002 4.10448 62.4863 4.1066L61.8705 0L54.3896 1.12181L59.9493 38.1974L67.4302 37.0753ZM66.1313 28.4136L63.7852 12.7684C63.7991 12.7662 63.8129 12.7634 63.8269 12.7614C68.1475 12.1135 72.1754 15.0909 72.8234 19.4115C73.4712 23.7322 70.4938 27.7599 66.1731 28.4078C66.1592 28.4099 66.1452 28.4116 66.1313 28.4136Z" fill="#F5F6F8"/>
<path d="M53.6258 8.39819C49.7544 12.018 47.67 17.4188 48.5154 23.0567C48.5444 23.2501 48.5768 23.4423 48.6122 23.6332L48.6021 23.6347L51.6465 43.9365L58.7943 42.8647L53.6258 8.39819Z" fill="#F5F6F8"/>
<line y1="22.5859" x2="53.787" y2="22.5859" stroke="#F5F6F8"/>
<line x1="80" y1="22.5859" x2="133.787" y2="22.5859" stroke="#F5F6F8"/>
</svg>
