<svg width="230" height="302" viewBox="0 0 230 302" fill="none" xmlns="http://www.w3.org/2000/svg">
<path fill-rule="evenodd" clip-rule="evenodd" d="M131.263 254.779C131.358 254.765 131.454 254.752 131.55 254.737C194.113 245.355 237.225 187.032 227.844 124.469C218.462 61.9061 160.139 18.7921 97.5754 28.1738C97.4797 28.1881 97.3845 28.2056 97.2889 28.2202L93.0571 0L41.649 7.70898L79.8549 262.489L131.263 254.779ZM122.337 195.256L106.215 87.7431C106.31 87.7283 106.405 87.7094 106.501 87.695C136.192 83.2427 163.871 103.703 168.324 133.395C172.776 163.086 152.316 190.764 122.624 195.216C122.529 195.23 122.433 195.242 122.337 195.256Z" fill="#C30205"/>
<path d="M36.4001 57.7116C9.79591 82.587 -4.52759 119.701 1.28191 158.444C1.48126 159.773 1.70367 161.094 1.94677 162.405L1.87756 162.416L22.7983 301.928L71.9174 294.563L36.4001 57.7116Z" fill="#C30205"/>
</svg>
