<svg width="217" height="46" viewBox="0 0 217 46" fill="none" xmlns="http://www.w3.org/2000/svg">
<path fill-rule="evenodd" clip-rule="evenodd" d="M20.1083 38.5658C20.123 38.5637 20.1377 38.5618 20.1523 38.5596C29.7364 37.1395 36.3408 28.3111 34.9037 18.8409C33.4664 9.37072 24.5318 2.84456 14.9477 4.26467C14.933 4.26684 14.9184 4.26949 14.9038 4.27169L14.2555 0L6.38026 1.16691L12.2331 39.733L20.1083 38.5658ZM18.7409 29.5559L16.2712 13.2817C16.2858 13.2794 16.3004 13.2766 16.315 13.2744C20.8634 12.6004 25.1037 15.6976 25.7858 20.1919C26.4678 24.6863 23.3334 28.8759 18.785 29.5499C18.7703 29.552 18.7556 29.5538 18.7409 29.5559Z" fill="#F5F6F8"/>
<path d="M5.57618 8.73581C1.50065 12.5012 -0.693587 18.1191 0.196378 23.9836C0.226916 24.1848 0.260987 24.3848 0.298229 24.5833L0.287626 24.5849L3.49251 45.7029L11.0171 44.5879L5.57618 8.73581Z" fill="#F5F6F8"/>
<path d="M45.1789 25.3414V22.4118H49.7289C51.2945 22.4118 52.4589 22.1121 53.2222 21.5127C54.005 20.8939 54.3964 19.8786 54.3964 18.467C54.3964 17.2101 54.0343 16.2626 53.3102 15.6244C52.5861 14.9863 51.4706 14.6672 49.9638 14.6672H45.1789V11.7666H50.0518C51.3043 11.7666 52.4296 11.9117 53.4276 12.2017C54.4257 12.4918 55.277 12.9172 55.9815 13.478C56.6861 14.0388 57.2242 14.7542 57.5961 15.6244C57.9679 16.4753 58.1538 17.4615 58.1538 18.583C58.1538 20.0527 57.8113 21.2903 57.1264 22.2958C56.461 23.3014 55.4629 24.0652 54.1322 24.5873C52.821 25.0901 51.1869 25.3414 49.2299 25.3414H45.1789ZM42.7424 30.9106V11.7666H46.4412V30.9106H42.7424Z" fill="#F5F6F8"/>
<path d="M58.8794 30.9106V10.3163H62.5194V30.9106H58.8794Z" fill="#F5F6F8"/>
<path d="M67.8804 31.2877C67.0389 31.2877 66.2854 31.133 65.6201 30.8236C64.9547 30.4949 64.4263 30.0114 64.0349 29.3733C63.6631 28.7352 63.4772 27.9423 63.4772 26.9948C63.4772 26.202 63.6239 25.5252 63.9175 24.9644C64.2306 24.4036 64.6905 23.9492 65.2972 23.6011C65.9038 23.2337 66.6573 22.9339 67.5575 22.7019C68.4577 22.4505 69.5145 22.2378 70.7278 22.0638C71.3932 21.9671 71.9314 21.8704 72.3424 21.7737C72.7729 21.677 73.086 21.532 73.2817 21.3386C73.4774 21.1259 73.5753 20.8165 73.5753 20.4104C73.5753 19.811 73.36 19.2985 72.9295 18.8731C72.5185 18.4283 71.8433 18.206 70.904 18.206C70.3364 18.206 69.7885 18.3027 69.2601 18.496C68.7513 18.6894 68.311 18.9988 67.9391 19.4242C67.5673 19.8303 67.3129 20.3717 67.1759 21.0486L63.8588 20.0333C64.074 19.2598 64.3872 18.5927 64.7981 18.0319C65.2091 17.4518 65.7179 16.9587 66.3246 16.5526C66.9313 16.1465 67.626 15.8468 68.4088 15.6534C69.1916 15.4601 70.0527 15.3634 70.992 15.3634C72.4206 15.3634 73.5948 15.5954 74.5146 16.0595C75.4344 16.5043 76.1194 17.2101 76.5695 18.177C77.0196 19.1245 77.2447 20.3524 77.2447 21.8607V24.7033C77.2447 25.3608 77.2544 26.0473 77.274 26.7627C77.3131 27.4589 77.3523 28.1647 77.3914 28.8802C77.4501 29.5763 77.5186 30.2531 77.5969 30.9106H74.2798C74.2015 30.3692 74.133 29.789 74.0743 29.1702C74.0156 28.5514 73.9667 27.923 73.9275 27.2849H73.4579C73.1839 28.0197 72.7925 28.6965 72.2837 29.3153C71.7748 29.9147 71.1486 30.3982 70.4049 30.7656C69.6808 31.1136 68.8393 31.2877 67.8804 31.2877ZM69.3482 28.5901C69.7395 28.5901 70.131 28.5224 70.5224 28.3871C70.9333 28.2517 71.3345 28.0487 71.7259 27.778C72.1173 27.5072 72.4794 27.1785 72.812 26.7917C73.1447 26.3857 73.4285 25.9119 73.6633 25.3705L73.6046 22.7889L74.3092 22.9049C73.9765 23.1757 73.5655 23.3884 73.0762 23.5431C72.587 23.6978 72.0684 23.8138 71.5204 23.8911C70.992 23.9685 70.4539 24.0652 69.9059 24.1812C69.3775 24.2779 68.898 24.4133 68.4675 24.5873C68.037 24.742 67.6945 24.974 67.4401 25.2834C67.1857 25.5735 67.0585 25.9796 67.0585 26.5017C67.0585 27.1592 67.2737 27.6716 67.7043 28.039C68.1348 28.4064 68.6828 28.5901 69.3482 28.5901Z" fill="#F5F6F8"/>
<path d="M78.8936 30.9106V15.7405H81.9759L81.8878 20.3814H82.4162C82.6902 19.2405 83.0522 18.3027 83.5023 17.5678C83.972 16.833 84.5689 16.2819 85.293 15.9145C86.0171 15.5471 86.8586 15.3634 87.8175 15.3634C89.5592 15.3634 90.8802 15.9725 91.7804 17.1908C92.7002 18.409 93.1601 20.2944 93.1601 22.8469V30.9106H89.432V23.224C89.432 21.5803 89.1776 20.3814 88.6688 19.6273C88.1796 18.8538 87.4457 18.467 86.4672 18.467C85.6452 18.467 84.9505 18.7281 84.383 19.2502C83.8154 19.753 83.3751 20.4298 83.062 21.2806C82.7684 22.1121 82.6119 23.0306 82.5923 24.0362V30.9106H78.8936Z" fill="#F5F6F8"/>
<path d="M94.9255 30.9106V11.7666H102.646C103.801 11.7666 104.838 11.8633 105.758 12.0567C106.677 12.2501 107.46 12.5595 108.106 12.9849C108.771 13.391 109.28 13.9131 109.632 14.5512C109.985 15.1893 110.161 15.9532 110.161 16.8427C110.161 17.5968 110.004 18.2543 109.691 18.8151C109.398 19.3565 108.918 19.811 108.253 20.1784C107.587 20.5264 106.716 20.7682 105.64 20.9035V21.3386C107.48 21.474 108.82 21.9381 109.662 22.7309C110.523 23.5044 110.953 24.5486 110.953 25.8636C110.953 26.9658 110.67 27.894 110.102 28.6481C109.554 29.383 108.713 29.9437 107.578 30.3305C106.462 30.7172 105.053 30.9106 103.35 30.9106H94.9255ZM98.4482 27.923H103.409C104.74 27.923 105.718 27.7199 106.345 27.3139C106.99 26.8884 107.313 26.2406 107.313 25.3705C107.313 24.3649 106.893 23.6108 106.051 23.108C105.229 22.6052 103.967 22.3538 102.264 22.3538H98.4482V27.923ZM98.4482 19.9753H101.677C103.321 19.9753 104.534 19.753 105.317 19.3082C106.12 18.8634 106.521 18.1866 106.521 17.2778C106.521 16.4076 106.169 15.7695 105.464 15.3634C104.779 14.938 103.722 14.7252 102.294 14.7252H98.4482V19.9753Z" fill="#F5F6F8"/>
<path d="M122.757 31.2879C121.72 31.2879 120.781 31.1816 119.939 30.9688C119.117 30.7755 118.413 30.4951 117.826 30.1277C117.239 29.7409 116.769 29.2865 116.417 28.7644C116.064 28.2229 115.849 27.6235 115.771 26.966L118.677 25.8928C118.716 26.3956 118.912 26.85 119.264 27.2561C119.616 27.6428 120.106 27.9522 120.732 28.1843C121.358 28.4163 122.112 28.5323 122.992 28.5323C123.971 28.5323 124.724 28.3873 125.253 28.0973C125.801 27.7879 126.074 27.3528 126.074 26.792C126.074 26.3859 125.928 26.0668 125.634 25.8348C125.341 25.5834 124.91 25.3804 124.343 25.2257C123.795 25.0516 123.129 24.8873 122.346 24.7326C121.622 24.5779 120.888 24.4038 120.145 24.2104C119.421 23.9977 118.746 23.727 118.119 23.3983C117.513 23.0502 117.014 22.6054 116.622 22.064C116.25 21.5032 116.064 20.7974 116.064 19.9466C116.064 19.0184 116.309 18.2159 116.798 17.5391C117.307 16.8623 118.031 16.3305 118.971 15.9437C119.93 15.557 121.084 15.3636 122.434 15.3636C123.707 15.3636 124.802 15.5376 125.722 15.8857C126.662 16.2338 127.425 16.7366 128.012 17.394C128.599 18.0322 128.971 18.796 129.127 19.6855L126.074 20.6427C126.016 20.1013 125.83 19.6468 125.517 19.2794C125.204 18.8927 124.783 18.6026 124.254 18.4092C123.726 18.2159 123.11 18.1192 122.405 18.1192C121.505 18.1192 120.8 18.2739 120.292 18.5833C119.783 18.8927 119.528 19.3084 119.528 19.8305C119.528 20.256 119.685 20.5944 119.998 20.8457C120.331 21.0971 120.781 21.3002 121.348 21.4549C121.935 21.6096 122.601 21.7643 123.344 21.919C124.127 22.0737 124.881 22.2574 125.605 22.4701C126.348 22.6635 127.014 22.9245 127.601 23.2532C128.188 23.582 128.658 24.0171 129.01 24.5585C129.362 25.0806 129.538 25.7574 129.538 26.5889C129.538 27.5945 129.264 28.455 128.716 29.1705C128.168 29.8666 127.386 30.3984 126.368 30.7658C125.37 31.1139 124.166 31.2879 122.757 31.2879Z" fill="#F5F6F8"/>
<path d="M137.317 31.2879C136.084 31.2879 134.978 31.1139 133.999 30.7658C133.04 30.4177 132.228 29.915 131.563 29.2575C130.898 28.5807 130.389 27.7685 130.036 26.821C129.684 25.8735 129.508 24.8002 129.508 23.6013C129.508 22.4024 129.674 21.3002 130.007 20.2946C130.359 19.2891 130.858 18.4189 131.504 17.6841C132.15 16.9493 132.933 16.3788 133.853 15.9727C134.792 15.5666 135.859 15.3636 137.052 15.3636C138.168 15.3636 139.166 15.5473 140.047 15.9147C140.927 16.2821 141.671 16.8332 142.278 17.5681C142.884 18.2835 143.334 19.1827 143.628 20.2656C143.921 21.3292 144.019 22.5668 143.921 23.9784L131.915 24.0654V21.948L141.779 21.861L140.487 23.0502C140.604 21.948 140.516 21.0488 140.223 20.3526C139.929 19.6372 139.508 19.1151 138.96 18.7863C138.412 18.4382 137.786 18.2642 137.082 18.2642C136.279 18.2642 135.575 18.4769 134.968 18.9023C134.361 19.3084 133.892 19.9079 133.559 20.7007C133.246 21.4742 133.089 22.4217 133.089 23.5433C133.089 25.2257 133.461 26.4826 134.205 27.3141C134.968 28.1456 136.005 28.5613 137.317 28.5613C137.904 28.5613 138.393 28.4937 138.784 28.3583C139.195 28.2036 139.538 28.0102 139.812 27.7782C140.086 27.5268 140.301 27.2464 140.458 26.937C140.634 26.6276 140.771 26.2989 140.868 25.9508L144.098 26.676C143.941 27.3914 143.687 28.0296 143.334 28.5904C142.982 29.1511 142.522 29.6346 141.955 30.0407C141.407 30.4467 140.751 30.7561 139.988 30.9688C139.225 31.1816 138.334 31.2879 137.317 31.2879Z" fill="#F5F6F8"/>
<path d="M144.954 30.9108V15.7407H148.066L148.007 20.9618H148.535C148.711 19.7242 148.985 18.6993 149.357 17.8871C149.729 17.0556 150.248 16.4368 150.913 16.0307C151.578 15.6053 152.4 15.3926 153.379 15.3926C153.574 15.3926 153.78 15.4023 153.995 15.4216C154.23 15.441 154.484 15.4893 154.758 15.5666L154.612 19.4244C154.299 19.3084 153.976 19.2311 153.643 19.1924C153.33 19.1344 153.036 19.1054 152.762 19.1054C151.999 19.1054 151.334 19.2988 150.766 19.6855C150.218 20.0723 149.768 20.6234 149.416 21.3388C149.083 22.035 148.829 22.8665 148.653 23.8334V30.9108H144.954Z" fill="#F5F6F8"/>
<path d="M159.287 30.9108L154.032 15.7697H158.142L161.694 27.9812H162.134L165.686 15.7697H169.679L164.395 30.9108H159.287Z" fill="#F5F6F8"/>
<path d="M169.784 30.9108V15.7407H173.483V30.9108H169.784ZM171.633 13.3622C170.89 13.3622 170.312 13.2075 169.902 12.8981C169.51 12.5694 169.314 12.1053 169.314 11.5058C169.314 10.9063 169.51 10.4519 169.902 10.1425C170.312 9.81379 170.89 9.64942 171.633 9.64942C172.416 9.64942 173.003 9.80412 173.395 10.1135C173.786 10.4229 173.982 10.887 173.982 11.5058C173.982 12.1053 173.776 12.5694 173.365 12.8981C172.974 13.2075 172.397 13.3622 171.633 13.3622Z" fill="#F5F6F8"/>
<path d="M182.189 31.2879C180.858 31.2879 179.703 31.0945 178.725 30.7078C177.766 30.3211 176.964 29.7796 176.318 29.0835C175.692 28.368 175.222 27.5365 174.909 26.5889C174.596 25.6414 174.439 24.6165 174.439 23.5143C174.439 22.3347 174.596 21.2518 174.909 20.2656C175.242 19.2794 175.731 18.4189 176.377 17.6841C177.022 16.9493 177.815 16.3788 178.754 15.9727C179.713 15.5666 180.809 15.3636 182.042 15.3636C183.275 15.3636 184.342 15.5666 185.242 15.9727C186.162 16.3788 186.905 16.9493 187.473 17.6841C188.04 18.3996 188.422 19.2407 188.618 20.2076L185.154 21.2808C185.115 20.7007 184.958 20.1883 184.684 19.7435C184.41 19.2794 184.038 18.9217 183.569 18.6703C183.099 18.4189 182.541 18.2932 181.895 18.2932C181.269 18.2932 180.721 18.4189 180.251 18.6703C179.801 18.9023 179.42 19.2407 179.107 19.6855C178.813 20.1303 178.578 20.6717 178.402 21.3098C178.246 21.9286 178.167 22.6248 178.167 23.3983C178.167 24.4618 178.314 25.3707 178.608 26.1248C178.901 26.879 179.351 27.4688 179.958 27.8942C180.565 28.3003 181.318 28.5033 182.218 28.5033C183.021 28.5033 183.666 28.3583 184.156 28.0682C184.664 27.7589 185.046 27.3624 185.301 26.879C185.575 26.3956 185.741 25.8638 185.8 25.2837L189.087 26.0088C188.97 26.8017 188.745 27.5171 188.412 28.1553C188.079 28.7934 187.62 29.3542 187.032 29.8376C186.465 30.3017 185.78 30.6595 184.978 30.9108C184.175 31.1622 183.246 31.2879 182.189 31.2879Z" fill="#F5F6F8"/>
<path d="M196.296 31.2879C195.063 31.2879 193.957 31.1139 192.979 30.7658C192.02 30.4177 191.208 29.915 190.542 29.2575C189.877 28.5807 189.368 27.7685 189.016 26.821C188.664 25.8735 188.488 24.8002 188.488 23.6013C188.488 22.4024 188.654 21.3002 188.987 20.2946C189.339 19.2891 189.838 18.4189 190.484 17.6841C191.13 16.9493 191.912 16.3788 192.832 15.9727C193.772 15.5666 194.838 15.3636 196.032 15.3636C197.147 15.3636 198.145 15.5473 199.026 15.9147C199.907 16.2821 200.65 16.8332 201.257 17.5681C201.864 18.2835 202.314 19.1827 202.607 20.2656C202.901 21.3292 202.999 22.5668 202.901 23.9784L190.895 24.0654V21.948L200.758 21.861L199.466 23.0502C199.584 21.948 199.496 21.0488 199.202 20.3526C198.909 19.6372 198.488 19.1151 197.94 18.7863C197.392 18.4382 196.766 18.2642 196.061 18.2642C195.259 18.2642 194.554 18.4769 193.948 18.9023C193.341 19.3084 192.871 19.9079 192.539 20.7007C192.225 21.4742 192.069 22.4217 192.069 23.5433C192.069 25.2257 192.441 26.4826 193.184 27.3141C193.948 28.1456 194.985 28.5613 196.296 28.5613C196.883 28.5613 197.372 28.4937 197.764 28.3583C198.175 28.2036 198.517 28.0102 198.791 27.7782C199.065 27.5268 199.28 27.2464 199.437 26.937C199.613 26.6276 199.75 26.2989 199.848 25.9508L203.077 26.676C202.92 27.3914 202.666 28.0296 202.314 28.5904C201.962 29.1511 201.502 29.6346 200.934 30.0407C200.386 30.4467 199.731 30.7561 198.967 30.9688C198.204 31.1816 197.314 31.2879 196.296 31.2879Z" fill="#F5F6F8"/>
<path d="M210.064 31.2879C209.027 31.2879 208.088 31.1816 207.246 30.9688C206.424 30.7755 205.72 30.4951 205.133 30.1277C204.546 29.7409 204.076 29.2865 203.724 28.7644C203.372 28.2229 203.156 27.6235 203.078 26.966L205.984 25.8928C206.023 26.3956 206.219 26.85 206.571 27.2561C206.923 27.6428 207.413 27.9522 208.039 28.1843C208.665 28.4163 209.419 28.5323 210.299 28.5323C211.278 28.5323 212.031 28.3873 212.56 28.0973C213.108 27.7879 213.382 27.3528 213.382 26.792C213.382 26.3859 213.235 26.0668 212.941 25.8348C212.648 25.5834 212.217 25.3804 211.65 25.2257C211.102 25.0516 210.436 24.8873 209.654 24.7326C208.929 24.5779 208.196 24.4038 207.452 24.2104C206.728 23.9977 206.053 23.727 205.426 23.3983C204.82 23.0502 204.321 22.6054 203.929 22.064C203.557 21.5032 203.372 20.7974 203.372 19.9466C203.372 19.0184 203.616 18.2159 204.105 17.5391C204.614 16.8623 205.338 16.3305 206.278 15.9437C207.237 15.557 208.391 15.3636 209.742 15.3636C211.014 15.3636 212.11 15.5376 213.029 15.8857C213.969 16.2338 214.732 16.7366 215.319 17.394C215.906 18.0322 216.278 18.796 216.435 19.6855L213.382 20.6427C213.323 20.1013 213.137 19.6468 212.824 19.2794C212.511 18.8927 212.09 18.6026 211.562 18.4092C211.033 18.2159 210.417 18.1192 209.712 18.1192C208.812 18.1192 208.107 18.2739 207.599 18.5833C207.09 18.8927 206.835 19.3084 206.835 19.8305C206.835 20.256 206.992 20.5944 207.305 20.8457C207.638 21.0971 208.088 21.3002 208.655 21.4549C209.243 21.6096 209.908 21.7643 210.652 21.919C211.434 22.0737 212.188 22.2574 212.912 22.4701C213.656 22.6635 214.321 22.9245 214.908 23.2532C215.495 23.582 215.965 24.0171 216.317 24.5585C216.669 25.0806 216.845 25.7574 216.845 26.5889C216.845 27.5945 216.572 28.455 216.024 29.1705C215.476 29.8666 214.693 30.3984 213.675 30.7658C212.677 31.1139 211.473 31.2879 210.064 31.2879Z" fill="#F5F6F8"/>
</svg>
