<svg width="69" height="91" viewBox="0 0 69 91" fill="none" xmlns="http://www.w3.org/2000/svg">
<path fill-rule="evenodd" clip-rule="evenodd" d="M39.3305 76.3398C39.3592 76.3356 39.3879 76.3317 39.4166 76.3274C58.1625 73.5163 71.0802 56.0409 68.2692 37.2949C65.4581 18.549 47.9826 5.63071 29.2367 8.44176C29.208 8.44606 29.1795 8.4513 29.1509 8.45567L27.8829 0L12.4794 2.30985L23.9271 78.6501L39.3305 76.3398ZM36.656 58.5048L31.8253 26.2906C31.8539 26.2862 31.8824 26.2805 31.9111 26.2762C40.8075 24.9422 49.1011 31.0729 50.4353 39.9692C51.7692 48.8657 45.6386 57.1588 36.7422 58.4929C36.7135 58.4972 36.6847 58.5007 36.656 58.5048Z" fill="#F5F6F8"/>
<path d="M10.9066 17.2922C2.93517 24.7457 -1.35661 35.8662 0.384102 47.4747C0.443833 47.873 0.510473 48.2688 0.583315 48.6618L0.562577 48.6649L6.83111 90.4673L21.5487 88.2603L10.9066 17.2922Z" fill="#F5F6F8"/>
</svg>
