<svg width="256" height="256" viewBox="0 0 256 256" fill="none" xmlns="http://www.w3.org/2000/svg">
<rect width="256" height="256" rx="128" fill="#C30205"/>
<path fill-rule="evenodd" clip-rule="evenodd" d="M139.596 194.705C139.657 194.696 139.719 194.687 139.78 194.678C179.979 188.65 207.68 151.175 201.652 110.976C195.624 70.7769 158.149 43.0746 117.95 49.1027C117.889 49.1119 117.828 49.1232 117.766 49.1325L115.047 31L82.0154 35.9533L106.564 199.659L139.596 194.705ZM133.86 156.459L123.501 87.3782C123.563 87.3686 123.624 87.3565 123.685 87.3473C142.763 84.4865 160.548 97.6333 163.409 116.711C166.27 135.789 153.123 153.573 134.045 156.434C133.984 156.443 133.922 156.45 133.86 156.459Z" fill="#F5F6F8"/>
<path d="M78.6429 68.0819C61.5487 84.0652 52.3453 107.912 56.0781 132.806C56.2062 133.66 56.3491 134.509 56.5053 135.351L56.4609 135.358L69.9032 225L101.464 220.267L78.6429 68.0819Z" fill="#F5F6F8"/>
</svg>
